<svg width="296" height="38" viewBox="0 0 296 38" fill="none" xmlns="http://www.w3.org/2000/svg">
<path d="M48 3.6C48 5.31208 46.5985 6.7 44.8696 6.7C43.1407 6.7 41.7391 5.31208 41.7391 3.6C41.7391 1.88792 43.1407 0.5 44.8696 0.5C46.5985 0.5 48 1.88792 48 3.6Z" fill="#69BFF3"/>
<path d="M6.26087 11.8667C6.26087 13.5787 4.85933 14.9667 3.13043 14.9667C1.40154 14.9667 0 13.5787 0 11.8667C0 10.1546 1.40154 8.76667 3.13043 8.76667C4.85933 8.76667 6.26087 10.1546 6.26087 11.8667Z" fill="#69BFF3"/>
<path d="M39.6522 11.8667C39.6522 13.5787 38.2506 14.9667 36.5217 14.9667C34.7928 14.9667 33.3913 13.5787 33.3913 11.8667C33.3913 10.1546 34.7928 8.76667 36.5217 8.76667C38.2506 8.76667 39.6522 10.1546 39.6522 11.8667Z" fill="#69BFF3"/>
<path d="M47.4783 11.8667C47.4783 13.2934 46.3103 14.45 44.8696 14.45C43.4288 14.45 42.2609 13.2934 42.2609 11.8667C42.2609 10.4399 43.4288 9.28333 44.8696 9.28333C46.3103 9.28333 47.4783 10.4399 47.4783 11.8667Z" fill="#69BFF3"/>
<path d="M5.73913 20.1333C5.73913 21.5601 4.57118 22.7167 3.13043 22.7167C1.68969 22.7167 0.521739 21.5601 0.521739 20.1333C0.521739 18.7066 1.68969 17.55 3.13043 17.55C4.57118 17.55 5.73913 18.7066 5.73913 20.1333Z" fill="#69BFF3"/>
<path d="M14.6087 20.1333C14.6087 21.8454 13.2072 23.2333 11.4783 23.2333C9.74937 23.2333 8.34783 21.8454 8.34783 20.1333C8.34783 18.4213 9.74937 17.0333 11.4783 17.0333C13.2072 17.0333 14.6087 18.4213 14.6087 20.1333Z" fill="#69BFF3"/>
<path d="M31.3043 20.1333C31.3043 21.8454 29.9028 23.2333 28.1739 23.2333C26.445 23.2333 25.0435 21.8454 25.0435 20.1333C25.0435 18.4213 26.445 17.0333 28.1739 17.0333C29.9028 17.0333 31.3043 18.4213 31.3043 20.1333Z" fill="#69BFF3"/>
<path d="M39.1304 20.1333C39.1304 21.5601 37.9625 22.7167 36.5217 22.7167C35.081 22.7167 33.913 21.5601 33.913 20.1333C33.913 18.7066 35.081 17.55 36.5217 17.55C37.9625 17.55 39.1304 18.7066 39.1304 20.1333Z" fill="#69BFF3"/>
<path d="M46.9565 20.1333C46.9565 21.2747 46.0222 22.2 44.8696 22.2C43.717 22.2 42.7826 21.2747 42.7826 20.1333C42.7826 18.9919 43.717 18.0667 44.8696 18.0667C46.0222 18.0667 46.9565 18.9919 46.9565 20.1333Z" fill="#69BFF3"/>
<path d="M5.21739 28.4C5.21739 29.5414 4.28303 30.4667 3.13043 30.4667C1.97784 30.4667 1.04348 29.5414 1.04348 28.4C1.04348 27.2586 1.97784 26.3333 3.13043 26.3333C4.28303 26.3333 5.21739 27.2586 5.21739 28.4Z" fill="#69BFF3"/>
<path d="M14.087 28.4C14.087 29.8267 12.919 30.9833 11.4783 30.9833C10.0375 30.9833 8.86957 29.8267 8.86957 28.4C8.86957 26.9733 10.0375 25.8167 11.4783 25.8167C12.919 25.8167 14.087 26.9733 14.087 28.4Z" fill="#69BFF3"/>
<path d="M22.9565 28.4C22.9565 30.1121 21.555 31.5 19.8261 31.5C18.0972 31.5 16.6957 30.1121 16.6957 28.4C16.6957 26.6879 18.0972 25.3 19.8261 25.3C21.555 25.3 22.9565 26.6879 22.9565 28.4Z" fill="#69BFF3"/>
<path d="M30.7826 28.4C30.7826 29.8267 29.6147 30.9833 28.1739 30.9833C26.7332 30.9833 25.5652 29.8267 25.5652 28.4C25.5652 26.9733 26.7332 25.8167 28.1739 25.8167C29.6147 25.8167 30.7826 26.9733 30.7826 28.4Z" fill="#69BFF3"/>
<path d="M38.6087 28.4C38.6087 29.5414 37.6743 30.4667 36.5217 30.4667C35.3691 30.4667 34.4348 29.5414 34.4348 28.4C34.4348 27.2586 35.3691 26.3333 36.5217 26.3333C37.6743 26.3333 38.6087 27.2586 38.6087 28.4Z" fill="#69BFF3"/>
<path d="M46.9565 28.4C46.9565 29.5414 46.0222 30.4667 44.8696 30.4667C43.717 30.4667 42.7826 29.5414 42.7826 28.4C42.7826 27.2586 43.717 26.3333 44.8696 26.3333C46.0222 26.3333 46.9565 27.2586 46.9565 28.4Z" fill="#69BFF3"/>
<path d="M66.496 29V5.48H72.16C74.272 5.48 76.064 5.71467 77.536 6.184C79.0293 6.65333 80.256 7.28267 81.216 8.072C82.176 8.84 82.9227 9.72533 83.456 10.728C84.0107 11.7093 84.3947 12.7333 84.608 13.8C84.8213 14.8453 84.928 15.8587 84.928 16.84C84.928 18.312 84.7147 19.7733 84.288 21.224C83.8827 22.6533 83.2 23.9547 82.24 25.128C81.28 26.3013 79.9893 27.24 78.368 27.944C76.768 28.648 74.7627 29 72.352 29H66.496ZM70.08 25.832H72.736C74.3147 25.832 75.6373 25.5867 76.704 25.096C77.792 24.6053 78.656 23.944 79.296 23.112C79.9573 22.2587 80.4267 21.3093 80.704 20.264C81.0027 19.1973 81.152 18.1093 81.152 17C81.152 15.4853 80.8853 14.0987 80.352 12.84C79.8187 11.56 78.9333 10.536 77.696 9.768C76.48 9 74.8267 8.616 72.736 8.616H70.08V25.832ZM93.8393 29.32C92.5379 29.32 91.3219 29.0107 90.1913 28.392C89.0819 27.7733 88.1859 26.888 87.5033 25.736C86.8206 24.584 86.4793 23.208 86.4793 21.608C86.4793 20.072 86.7673 18.728 87.3433 17.576C87.9406 16.424 88.7726 15.528 89.8393 14.888C90.9273 14.248 92.2179 13.928 93.7113 13.928C94.6073 13.928 95.4179 14.088 96.1433 14.408C96.8899 14.7067 97.5086 15.08 97.9993 15.528C98.5113 15.9547 98.8526 16.3707 99.0233 16.776L99.0873 14.312H102.383V29H99.1193L99.0553 26.408C98.8419 26.8773 98.4793 27.336 97.9673 27.784C97.4766 28.232 96.8793 28.6053 96.1753 28.904C95.4713 29.1813 94.6926 29.32 93.8393 29.32ZM94.4153 26.44C95.2046 26.44 95.9193 26.2587 96.5593 25.896C97.2206 25.512 97.7433 24.9787 98.1273 24.296C98.5326 23.6133 98.7353 22.8027 98.7353 21.864V21.64C98.7353 20.68 98.5326 19.848 98.1273 19.144C97.7433 18.4187 97.2206 17.864 96.5593 17.48C95.9193 17.0747 95.2046 16.872 94.4153 16.872C92.9859 16.872 91.9086 17.3307 91.1833 18.248C90.4793 19.1653 90.1273 20.296 90.1273 21.64C90.1273 23.0053 90.4793 24.1467 91.1833 25.064C91.9086 25.9813 92.9859 26.44 94.4153 26.44ZM107.038 29V17.128H104.446V14.312H107.038V8.328L110.526 7.56V14.312H113.918V17.128H110.526V29H107.038ZM121.982 29.32C120.68 29.32 119.464 29.0107 118.334 28.392C117.224 27.7733 116.328 26.888 115.646 25.736C114.963 24.584 114.622 23.208 114.622 21.608C114.622 20.072 114.91 18.728 115.486 17.576C116.083 16.424 116.915 15.528 117.982 14.888C119.07 14.248 120.36 13.928 121.854 13.928C122.75 13.928 123.56 14.088 124.286 14.408C125.032 14.7067 125.651 15.08 126.142 15.528C126.654 15.9547 126.995 16.3707 127.166 16.776L127.23 14.312H130.526V29H127.262L127.198 26.408C126.984 26.8773 126.622 27.336 126.11 27.784C125.619 28.232 125.022 28.6053 124.318 28.904C123.614 29.1813 122.835 29.32 121.982 29.32ZM122.558 26.44C123.347 26.44 124.062 26.2587 124.702 25.896C125.363 25.512 125.886 24.9787 126.27 24.296C126.675 23.6133 126.878 22.8027 126.878 21.864V21.64C126.878 20.68 126.675 19.848 126.27 19.144C125.886 18.4187 125.363 17.864 124.702 17.48C124.062 17.0747 123.347 16.872 122.558 16.872C121.128 16.872 120.051 17.3307 119.326 18.248C118.622 19.1653 118.27 20.296 118.27 21.64C118.27 23.0053 118.622 24.1467 119.326 25.064C120.051 25.9813 121.128 26.44 122.558 26.44ZM152.137 29.32C150.537 29.32 149.022 29.0427 147.593 28.488C146.185 27.9333 144.937 27.1333 143.849 26.088C142.761 25.0213 141.897 23.7413 141.257 22.248C140.638 20.7547 140.329 19.0693 140.329 17.192C140.329 15.2933 140.638 13.5973 141.257 12.104C141.897 10.6107 142.761 9.34133 143.849 8.296C144.958 7.25067 146.217 6.46133 147.625 5.928C149.054 5.37333 150.558 5.096 152.137 5.096C153.716 5.096 155.209 5.37333 156.617 5.928C158.046 6.46133 159.305 7.25067 160.393 8.296C161.502 9.34133 162.366 10.6107 162.985 12.104C163.625 13.5973 163.945 15.2933 163.945 17.192C163.945 19.56 163.454 21.6187 162.473 23.368C161.492 25.1173 160.201 26.4933 158.601 27.496L161.513 32.008H157.961L155.849 28.776C154.654 29.1387 153.417 29.32 152.137 29.32ZM152.137 26.088C152.777 26.088 153.396 26.024 153.993 25.896L151.849 22.408H155.433L156.809 24.648C157.812 23.9227 158.612 22.9413 159.209 21.704C159.828 20.4453 160.137 18.952 160.137 17.224C160.137 15.2827 159.774 13.6613 159.049 12.36C158.324 11.0373 157.353 10.0453 156.137 9.384C154.942 8.70133 153.609 8.36 152.137 8.36C150.665 8.36 149.321 8.70133 148.105 9.384C146.91 10.0453 145.95 11.0373 145.225 12.36C144.5 13.6613 144.137 15.2827 144.137 17.224C144.137 19.144 144.51 20.7653 145.257 22.088C146.004 23.3893 146.985 24.3813 148.201 25.064C149.417 25.7467 150.729 26.088 152.137 26.088ZM171.694 29.32C170.222 29.32 169.102 29.0107 168.334 28.392C167.566 27.7733 167.043 26.952 166.766 25.928C166.51 24.904 166.382 23.7733 166.382 22.536V14.312H169.838V21.672C169.838 22.8027 169.902 23.72 170.03 24.424C170.179 25.128 170.456 25.6507 170.862 25.992C171.288 26.312 171.918 26.472 172.75 26.472C173.347 26.472 173.912 26.312 174.446 25.992C175 25.6507 175.459 25.192 175.822 24.616C176.184 24.0187 176.366 23.3573 176.366 22.632V14.312H179.79V29H176.974L176.59 26.856C176.056 27.6667 175.395 28.2853 174.606 28.712C173.816 29.1173 172.846 29.32 171.694 29.32ZM189.642 29.32C188.34 29.32 187.124 29.0107 185.994 28.392C184.884 27.7733 183.988 26.888 183.306 25.736C182.623 24.584 182.282 23.208 182.282 21.608C182.282 20.072 182.57 18.728 183.146 17.576C183.743 16.424 184.575 15.528 185.642 14.888C186.73 14.248 188.02 13.928 189.514 13.928C190.41 13.928 191.22 14.088 191.946 14.408C192.692 14.7067 193.311 15.08 193.802 15.528C194.314 15.9547 194.655 16.3707 194.826 16.776L194.89 14.312H198.186V29H194.922L194.858 26.408C194.644 26.8773 194.282 27.336 193.77 27.784C193.279 28.232 192.682 28.6053 191.978 28.904C191.274 29.1813 190.495 29.32 189.642 29.32ZM190.218 26.44C191.007 26.44 191.722 26.2587 192.362 25.896C193.023 25.512 193.546 24.9787 193.93 24.296C194.335 23.6133 194.538 22.8027 194.538 21.864V21.64C194.538 20.68 194.335 19.848 193.93 19.144C193.546 18.4187 193.023 17.864 192.362 17.48C191.722 17.0747 191.007 16.872 190.218 16.872C188.788 16.872 187.711 17.3307 186.986 18.248C186.282 19.1653 185.93 20.296 185.93 21.64C185.93 23.0053 186.282 24.1467 186.986 25.064C187.711 25.9813 188.788 26.44 190.218 26.44ZM201.411 29V5.48H204.835V29H201.411ZM208.294 29V14.312H211.878V29H208.294ZM210.086 11.56C209.425 11.56 208.87 11.336 208.422 10.888C207.996 10.44 207.782 9.88533 207.782 9.224C207.782 8.62667 207.996 8.11467 208.422 7.688C208.87 7.26133 209.425 7.048 210.086 7.048C210.748 7.048 211.292 7.26133 211.718 7.688C212.166 8.11467 212.39 8.62667 212.39 9.224C212.39 9.88533 212.166 10.44 211.718 10.888C211.292 11.336 210.748 11.56 210.086 11.56ZM216.577 29V17.128H213.985V14.312H216.577V8.328L220.065 7.56V14.312H223.457V17.128H220.065V29H216.577ZM226.581 37.064L229.749 29.448L223.669 14.312H227.573L230.709 23.656L231.413 25.928L232.117 23.656L235.413 14.312H239.189L230.165 37.064H226.581Z" fill="white"/>
</svg>
