<svg width="207" height="34" viewBox="0 0 207 34" fill="none" xmlns="http://www.w3.org/2000/svg">
<path d="M48 3.63043C48 5.35933 46.5985 6.76087 44.8696 6.76087C43.1407 6.76087 41.7391 5.35933 41.7391 3.63043C41.7391 1.90154 43.1407 0.5 44.8696 0.5C46.5985 0.5 48 1.90154 48 3.63043Z" fill="#69BFF3"/>
<path d="M6.26087 11.9783C6.26087 13.7072 4.85933 15.1087 3.13043 15.1087C1.40154 15.1087 0 13.7072 0 11.9783C0 10.2494 1.40154 8.84783 3.13043 8.84783C4.85933 8.84783 6.26087 10.2494 6.26087 11.9783Z" fill="#69BFF3"/>
<path d="M39.6522 11.9783C39.6522 13.7072 38.2506 15.1087 36.5217 15.1087C34.7928 15.1087 33.3913 13.7072 33.3913 11.9783C33.3913 10.2494 34.7928 8.84783 36.5217 8.84783C38.2506 8.84783 39.6522 10.2494 39.6522 11.9783Z" fill="#69BFF3"/>
<path d="M47.4783 11.9783C47.4783 13.419 46.3103 14.587 44.8696 14.587C43.4288 14.587 42.2609 13.419 42.2609 11.9783C42.2609 10.5375 43.4288 9.36957 44.8696 9.36957C46.3103 9.36957 47.4783 10.5375 47.4783 11.9783Z" fill="#69BFF3"/>
<path d="M5.73913 20.3261C5.73913 21.7668 4.57118 22.9348 3.13043 22.9348C1.68969 22.9348 0.521739 21.7668 0.521739 20.3261C0.521739 18.8853 1.68969 17.7174 3.13043 17.7174C4.57118 17.7174 5.73913 18.8853 5.73913 20.3261Z" fill="#69BFF3"/>
<path d="M14.6087 20.3261C14.6087 22.055 13.2072 23.4565 11.4783 23.4565C9.74937 23.4565 8.34783 22.055 8.34783 20.3261C8.34783 18.5972 9.74937 17.1957 11.4783 17.1957C13.2072 17.1957 14.6087 18.5972 14.6087 20.3261Z" fill="#69BFF3"/>
<path d="M31.3043 20.3261C31.3043 22.055 29.9028 23.4565 28.1739 23.4565C26.445 23.4565 25.0435 22.055 25.0435 20.3261C25.0435 18.5972 26.445 17.1957 28.1739 17.1957C29.9028 17.1957 31.3043 18.5972 31.3043 20.3261Z" fill="#69BFF3"/>
<path d="M39.1304 20.3261C39.1304 21.7668 37.9625 22.9348 36.5217 22.9348C35.081 22.9348 33.913 21.7668 33.913 20.3261C33.913 18.8853 35.081 17.7174 36.5217 17.7174C37.9625 17.7174 39.1304 18.8853 39.1304 20.3261Z" fill="#69BFF3"/>
<path d="M46.9565 20.3261C46.9565 21.4787 46.0222 22.413 44.8696 22.413C43.717 22.413 42.7826 21.4787 42.7826 20.3261C42.7826 19.1735 43.717 18.2391 44.8696 18.2391C46.0222 18.2391 46.9565 19.1735 46.9565 20.3261Z" fill="#69BFF3"/>
<path d="M5.21739 28.6739C5.21739 29.8265 4.28303 30.7609 3.13043 30.7609C1.97784 30.7609 1.04348 29.8265 1.04348 28.6739C1.04348 27.5213 1.97784 26.587 3.13043 26.587C4.28303 26.587 5.21739 27.5213 5.21739 28.6739Z" fill="#69BFF3"/>
<path d="M14.087 28.6739C14.087 30.1147 12.919 31.2826 11.4783 31.2826C10.0375 31.2826 8.86957 30.1147 8.86957 28.6739C8.86957 27.2332 10.0375 26.0652 11.4783 26.0652C12.919 26.0652 14.087 27.2332 14.087 28.6739Z" fill="#69BFF3"/>
<path d="M22.9565 28.6739C22.9565 30.4028 21.555 31.8043 19.8261 31.8043C18.0972 31.8043 16.6957 30.4028 16.6957 28.6739C16.6957 26.945 18.0972 25.5435 19.8261 25.5435C21.555 25.5435 22.9565 26.945 22.9565 28.6739Z" fill="#69BFF3"/>
<path d="M30.7826 28.6739C30.7826 30.1147 29.6147 31.2826 28.1739 31.2826C26.7332 31.2826 25.5652 30.1147 25.5652 28.6739C25.5652 27.2332 26.7332 26.0652 28.1739 26.0652C29.6147 26.0652 30.7826 27.2332 30.7826 28.6739Z" fill="#69BFF3"/>
<path d="M38.6087 28.6739C38.6087 29.8265 37.6743 30.7609 36.5217 30.7609C35.3691 30.7609 34.4348 29.8265 34.4348 28.6739C34.4348 27.5213 35.3691 26.587 36.5217 26.587C37.6743 26.587 38.6087 27.5213 38.6087 28.6739Z" fill="#69BFF3"/>
<path d="M46.9565 28.6739C46.9565 29.8265 46.0222 30.7609 44.8696 30.7609C43.717 30.7609 42.7826 29.8265 42.7826 28.6739C42.7826 27.5213 43.717 26.587 44.8696 26.587C46.0222 26.587 46.9565 27.5213 46.9565 28.6739Z" fill="#69BFF3"/>
<path d="M66.028 27.1522V8.04217H70.63C72.346 8.04217 73.802 8.23284 74.998 8.61417C76.2113 8.99551 77.208 9.50684 77.988 10.1482C78.768 10.7722 79.3747 11.4915 79.808 12.3062C80.2587 13.1035 80.5707 13.9355 80.744 14.8022C80.9173 15.6515 81.004 16.4748 81.004 17.2722C81.004 18.4682 80.8307 19.6555 80.484 20.8342C80.1547 21.9955 79.6 23.0528 78.82 24.0062C78.04 24.9595 76.9913 25.7222 75.674 26.2942C74.374 26.8662 72.7447 27.1522 70.786 27.1522H66.028ZM68.94 24.5782H71.098C72.3807 24.5782 73.4553 24.3788 74.322 23.9802C75.206 23.5815 75.908 23.0442 76.428 22.3682C76.9653 21.6748 77.3467 20.9035 77.572 20.0542C77.8147 19.1875 77.936 18.3035 77.936 17.4022C77.936 16.1715 77.7193 15.0448 77.286 14.0222C76.8527 12.9822 76.1333 12.1502 75.128 11.5262C74.14 10.9022 72.7967 10.5902 71.098 10.5902H68.94V24.5782Z" fill="#283034"/>
<path d="M88.2444 27.4122C87.1871 27.4122 86.1991 27.1608 85.2804 26.6582C84.3791 26.1555 83.6511 25.4362 83.0964 24.5002C82.5417 23.5642 82.2644 22.4462 82.2644 21.1462C82.2644 19.8982 82.4984 18.8062 82.9664 17.8702C83.4517 16.9342 84.1277 16.2062 84.9944 15.6862C85.8784 15.1662 86.9271 14.9062 88.1404 14.9062C88.8684 14.9062 89.5271 15.0362 90.1164 15.2962C90.7231 15.5388 91.2257 15.8422 91.6244 16.2062C92.0404 16.5528 92.3177 16.8908 92.4564 17.2202L92.5084 15.2182H95.1864V27.1522H92.5344L92.4824 25.0462C92.3091 25.4275 92.0144 25.8002 91.5984 26.1642C91.1997 26.5282 90.7144 26.8315 90.1424 27.0742C89.5704 27.2995 88.9377 27.4122 88.2444 27.4122ZM88.7124 25.0722C89.3537 25.0722 89.9344 24.9248 90.4544 24.6302C90.9917 24.3182 91.4164 23.8848 91.7284 23.3302C92.0577 22.7755 92.2224 22.1168 92.2224 21.3542V21.1722C92.2224 20.3922 92.0577 19.7162 91.7284 19.1442C91.4164 18.5548 90.9917 18.1042 90.4544 17.7922C89.9344 17.4628 89.3537 17.2982 88.7124 17.2982C87.5511 17.2982 86.6757 17.6708 86.0864 18.4162C85.5144 19.1615 85.2284 20.0802 85.2284 21.1722C85.2284 22.2815 85.5144 23.2088 86.0864 23.9542C86.6757 24.6995 87.5511 25.0722 88.7124 25.0722Z" fill="#283034"/>
<path d="M98.9686 27.1522V17.5062H96.8626V15.2182H98.9686V10.3562L101.803 9.73217V15.2182H104.559V17.5062H101.803V27.1522H98.9686Z" fill="#283034"/>
<path d="M111.11 27.4122C110.053 27.4122 109.065 27.1608 108.146 26.6582C107.245 26.1555 106.517 25.4362 105.962 24.5002C105.408 23.5642 105.13 22.4462 105.13 21.1462C105.13 19.8982 105.364 18.8062 105.832 17.8702C106.318 16.9342 106.994 16.2062 107.86 15.6862C108.744 15.1662 109.793 14.9062 111.006 14.9062C111.734 14.9062 112.393 15.0362 112.982 15.2962C113.589 15.5388 114.092 15.8422 114.49 16.2062C114.906 16.5528 115.184 16.8908 115.322 17.2202L115.374 15.2182H118.052V27.1522H115.4L115.348 25.0462C115.175 25.4275 114.88 25.8002 114.464 26.1642C114.066 26.5282 113.58 26.8315 113.008 27.0742C112.436 27.2995 111.804 27.4122 111.11 27.4122ZM111.578 25.0722C112.22 25.0722 112.8 24.9248 113.32 24.6302C113.858 24.3182 114.282 23.8848 114.594 23.3302C114.924 22.7755 115.088 22.1168 115.088 21.3542V21.1722C115.088 20.3922 114.924 19.7162 114.594 19.1442C114.282 18.5548 113.858 18.1042 113.32 17.7922C112.8 17.4628 112.22 17.2982 111.578 17.2982C110.417 17.2982 109.542 17.6708 108.952 18.4162C108.38 19.1615 108.094 20.0802 108.094 21.1722C108.094 22.2815 108.38 23.2088 108.952 23.9542C109.542 24.6995 110.417 25.0722 111.578 25.0722Z" fill="#283034"/>
<path d="M135.611 27.4122C134.311 27.4122 133.081 27.1868 131.919 26.7362C130.775 26.2855 129.761 25.6355 128.877 24.7862C127.993 23.9195 127.291 22.8795 126.771 21.6662C126.269 20.4528 126.017 19.0835 126.017 17.5582C126.017 16.0155 126.269 14.6375 126.771 13.4242C127.291 12.2108 127.993 11.1795 128.877 10.3302C129.779 9.48084 130.801 8.83951 131.945 8.40617C133.107 7.95551 134.329 7.73017 135.611 7.73017C136.894 7.73017 138.107 7.95551 139.251 8.40617C140.413 8.83951 141.435 9.48084 142.319 10.3302C143.221 11.1795 143.923 12.2108 144.425 13.4242C144.945 14.6375 145.205 16.0155 145.205 17.5582C145.205 19.4822 144.807 21.1548 144.009 22.5762C143.212 23.9975 142.163 25.1155 140.863 25.9302L143.229 29.5962H140.343L138.627 26.9702C137.657 27.2648 136.651 27.4122 135.611 27.4122ZM135.611 24.7862C136.131 24.7862 136.634 24.7342 137.119 24.6302L135.377 21.7962H138.289L139.407 23.6162C140.222 23.0268 140.872 22.2295 141.357 21.2242C141.86 20.2015 142.111 18.9882 142.111 17.5842C142.111 16.0068 141.817 14.6895 141.227 13.6322C140.638 12.5575 139.849 11.7515 138.861 11.2142C137.891 10.6595 136.807 10.3822 135.611 10.3822C134.415 10.3822 133.323 10.6595 132.335 11.2142C131.365 11.7515 130.585 12.5575 129.995 13.6322C129.406 14.6895 129.111 16.0068 129.111 17.5842C129.111 19.1442 129.415 20.4615 130.021 21.5362C130.628 22.5935 131.425 23.3995 132.413 23.9542C133.401 24.5088 134.467 24.7862 135.611 24.7862Z" fill="#283034"/>
<path d="M151.501 27.4122C150.305 27.4122 149.395 27.1608 148.771 26.6582C148.147 26.1555 147.723 25.4882 147.497 24.6562C147.289 23.8242 147.185 22.9055 147.185 21.9002V15.2182H149.993V21.1982C149.993 22.1168 150.045 22.8622 150.149 23.4342C150.271 24.0062 150.496 24.4308 150.825 24.7082C151.172 24.9682 151.683 25.0982 152.359 25.0982C152.845 25.0982 153.304 24.9682 153.737 24.7082C154.188 24.4308 154.561 24.0582 154.855 23.5902C155.15 23.1048 155.297 22.5675 155.297 21.9782V15.2182H158.079V27.1522H155.791L155.479 25.4102C155.046 26.0688 154.509 26.5715 153.867 26.9182C153.226 27.2475 152.437 27.4122 151.501 27.4122Z" fill="#283034"/>
<path d="M166.084 27.4122C165.027 27.4122 164.039 27.1608 163.12 26.6582C162.219 26.1555 161.491 25.4362 160.936 24.5002C160.381 23.5642 160.104 22.4462 160.104 21.1462C160.104 19.8982 160.338 18.8062 160.806 17.8702C161.291 16.9342 161.967 16.2062 162.834 15.6862C163.718 15.1662 164.767 14.9062 165.98 14.9062C166.708 14.9062 167.367 15.0362 167.956 15.2962C168.563 15.5388 169.065 15.8422 169.464 16.2062C169.88 16.5528 170.157 16.8908 170.296 17.2202L170.348 15.2182H173.026V27.1522H170.374L170.322 25.0462C170.149 25.4275 169.854 25.8002 169.438 26.1642C169.039 26.5282 168.554 26.8315 167.982 27.0742C167.41 27.2995 166.777 27.4122 166.084 27.4122ZM166.552 25.0722C167.193 25.0722 167.774 24.9248 168.294 24.6302C168.831 24.3182 169.256 23.8848 169.568 23.3302C169.897 22.7755 170.062 22.1168 170.062 21.3542V21.1722C170.062 20.3922 169.897 19.7162 169.568 19.1442C169.256 18.5548 168.831 18.1042 168.294 17.7922C167.774 17.4628 167.193 17.2982 166.552 17.2982C165.391 17.2982 164.515 17.6708 163.926 18.4162C163.354 19.1615 163.068 20.0802 163.068 21.1722C163.068 22.2815 163.354 23.2088 163.926 23.9542C164.515 24.6995 165.391 25.0722 166.552 25.0722Z" fill="#283034"/>
<path d="M175.647 27.1522V8.04217H178.429V27.1522H175.647Z" fill="#283034"/>
<path d="M181.239 27.1522V15.2182H184.151V27.1522H181.239ZM182.695 12.9822C182.158 12.9822 181.707 12.8002 181.343 12.4362C180.996 12.0722 180.823 11.6215 180.823 11.0842C180.823 10.5988 180.996 10.1828 181.343 9.83617C181.707 9.48951 182.158 9.31617 182.695 9.31617C183.232 9.31617 183.674 9.48951 184.021 9.83617C184.385 10.1828 184.567 10.5988 184.567 11.0842C184.567 11.6215 184.385 12.0722 184.021 12.4362C183.674 12.8002 183.232 12.9822 182.695 12.9822Z" fill="#283034"/>
<path d="M187.969 27.1522V17.5062H185.863V15.2182H187.969V10.3562L190.803 9.73217V15.2182H193.559V17.5062H190.803V27.1522H187.969Z" fill="#283034"/>
<path d="M196.097 33.7042L198.671 27.5162L193.731 15.2182H196.903L199.451 22.8102L200.023 24.6562L200.595 22.8102L203.273 15.2182H206.341L199.009 33.7042H196.097Z" fill="#283034"/>
</svg>
