<svg width="1312" height="281" viewBox="0 0 1312 281" fill="none" xmlns="http://www.w3.org/2000/svg">
<path opacity="0.03" d="M-58.16 210V4.2H-8.59999C9.88 4.2 25.56 6.25333 38.44 10.36C51.5067 14.4667 62.24 19.9733 70.64 26.88C79.04 33.6 85.5733 41.3467 90.24 50.12C95.0933 58.7067 98.4533 67.6667 100.32 77C102.187 86.1467 103.12 95.0133 103.12 103.6C103.12 116.48 101.253 129.267 97.52 141.96C93.9733 154.467 88 165.853 79.6 176.12C71.2 186.387 59.9067 194.6 45.72 200.76C31.72 206.92 14.1733 210 -6.92 210H-58.16ZM-26.8 182.28H-3.56C10.2533 182.28 21.8267 180.133 31.16 175.84C40.68 171.547 48.24 165.76 53.84 158.48C59.6267 151.013 63.7333 142.707 66.16 133.56C68.7733 124.227 70.08 114.707 70.08 105C70.08 91.7467 67.7467 79.6133 63.08 68.6C58.4133 57.4 50.6667 48.44 39.84 41.72C29.2 35 14.7333 31.64 -3.56 31.64H-26.8V182.28ZM175.493 212.8C164.107 212.8 153.467 210.093 143.573 204.68C133.867 199.267 126.027 191.52 120.053 181.44C114.08 171.36 111.093 159.32 111.093 145.32C111.093 131.88 113.613 120.12 118.653 110.04C123.88 99.96 131.16 92.12 140.493 86.52C150.013 80.92 161.307 78.12 174.373 78.12C182.213 78.12 189.307 79.52 195.653 82.32C202.187 84.9333 207.6 88.2 211.893 92.12C216.373 95.8533 219.36 99.4933 220.853 103.04L221.413 81.48H250.253V210H221.693L221.133 187.32C219.267 191.427 216.093 195.44 211.613 199.36C207.32 203.28 202.093 206.547 195.933 209.16C189.773 211.587 182.96 212.8 175.493 212.8ZM180.533 187.6C187.44 187.6 193.693 186.013 199.293 182.84C205.08 179.48 209.653 174.813 213.013 168.84C216.56 162.867 218.333 155.773 218.333 147.56V145.6C218.333 137.2 216.56 129.92 213.013 123.76C209.653 117.413 205.08 112.56 199.293 109.2C193.693 105.653 187.44 103.88 180.533 103.88C168.027 103.88 158.6 107.893 152.253 115.92C146.093 123.947 143.013 133.84 143.013 145.6C143.013 157.547 146.093 167.533 152.253 175.56C158.6 183.587 168.027 187.6 180.533 187.6ZM285.385 210V106.12H262.705V81.48H285.385V29.12L315.905 22.4V81.48H345.585V106.12H315.905V210H285.385ZM410.54 212.8C399.154 212.8 388.514 210.093 378.62 204.68C368.914 199.267 361.074 191.52 355.1 181.44C349.127 171.36 346.14 159.32 346.14 145.32C346.14 131.88 348.66 120.12 353.7 110.04C358.927 99.96 366.207 92.12 375.54 86.52C385.06 80.92 396.354 78.12 409.42 78.12C417.26 78.12 424.354 79.52 430.7 82.32C437.234 84.9333 442.647 88.2 446.94 92.12C451.42 95.8533 454.407 99.4933 455.9 103.04L456.46 81.48H485.3V210H456.74L456.18 187.32C454.314 191.427 451.14 195.44 446.66 199.36C442.367 203.28 437.14 206.547 430.98 209.16C424.82 211.587 418.007 212.8 410.54 212.8ZM415.58 187.6C422.487 187.6 428.74 186.013 434.34 182.84C440.127 179.48 444.7 174.813 448.06 168.84C451.607 162.867 453.38 155.773 453.38 147.56V145.6C453.38 137.2 451.607 129.92 448.06 123.76C444.7 117.413 440.127 112.56 434.34 109.2C428.74 105.653 422.487 103.88 415.58 103.88C403.074 103.88 393.647 107.893 387.3 115.92C381.14 123.947 378.06 133.84 378.06 145.6C378.06 157.547 381.14 167.533 387.3 175.56C393.647 183.587 403.074 187.6 415.58 187.6ZM663.199 212.8C649.199 212.8 635.945 210.373 623.439 205.52C611.119 200.667 600.199 193.667 590.679 184.52C581.159 175.187 573.599 163.987 567.999 150.92C562.585 137.853 559.879 123.107 559.879 106.68C559.879 90.0667 562.585 75.2267 567.999 62.16C573.599 49.0933 581.159 37.9867 590.679 28.84C600.385 19.6933 611.399 12.7867 623.719 8.12C636.225 3.26666 649.385 0.839989 663.199 0.839989C677.012 0.839989 690.079 3.26666 702.399 8.12C714.905 12.7867 725.919 19.6933 735.439 28.84C745.145 37.9867 752.705 49.0933 758.119 62.16C763.719 75.2267 766.519 90.0667 766.519 106.68C766.519 127.4 762.225 145.413 753.639 160.72C745.052 176.027 733.759 188.067 719.759 196.84L745.239 236.32H714.159L695.679 208.04C685.225 211.213 674.399 212.8 663.199 212.8ZM663.199 184.52C668.799 184.52 674.212 183.96 679.439 182.84L660.679 152.32H692.039L704.079 171.92C712.852 165.573 719.852 156.987 725.079 146.16C730.492 135.147 733.199 122.08 733.199 106.96C733.199 89.9733 730.025 75.7867 723.679 64.4C717.332 52.8267 708.839 44.1467 698.199 38.36C687.745 32.3867 676.079 29.4 663.199 29.4C650.319 29.4 638.559 32.3867 627.919 38.36C617.465 44.1467 609.065 52.8267 602.719 64.4C596.372 75.7867 593.199 89.9733 593.199 106.96C593.199 123.76 596.465 137.947 602.999 149.52C609.532 160.907 618.119 169.587 628.759 175.56C639.399 181.533 650.879 184.52 663.199 184.52ZM828.72 212.8C815.84 212.8 806.04 210.093 799.32 204.68C792.6 199.267 788.027 192.08 785.6 183.12C783.36 174.16 782.24 164.267 782.24 153.44V81.48H812.48V145.88C812.48 155.773 813.04 163.8 814.16 169.96C815.467 176.12 817.894 180.693 821.44 183.68C825.174 186.48 830.68 187.88 837.96 187.88C843.187 187.88 848.134 186.48 852.8 183.68C857.654 180.693 861.667 176.68 864.84 171.64C868.014 166.413 869.6 160.627 869.6 154.28V81.48H899.56V210H874.92L871.56 191.24C866.894 198.333 861.107 203.747 854.2 207.48C847.294 211.027 838.8 212.8 828.72 212.8ZM980.165 212.8C968.779 212.8 958.139 210.093 948.245 204.68C938.539 199.267 930.699 191.52 924.725 181.44C918.752 171.36 915.765 159.32 915.765 145.32C915.765 131.88 918.285 120.12 923.325 110.04C928.552 99.96 935.832 92.12 945.165 86.52C954.685 80.92 965.979 78.12 979.045 78.12C986.885 78.12 993.979 79.52 1000.33 82.32C1006.86 84.9333 1012.27 88.2 1016.57 92.12C1021.05 95.8533 1024.03 99.4933 1025.53 103.04L1026.09 81.48H1054.93V210H1026.37L1025.81 187.32C1023.94 191.427 1020.77 195.44 1016.29 199.36C1011.99 203.28 1006.77 206.547 1000.61 209.16C994.445 211.587 987.632 212.8 980.165 212.8ZM985.205 187.6C992.112 187.6 998.365 186.013 1003.97 182.84C1009.75 179.48 1014.33 174.813 1017.69 168.84C1021.23 162.867 1023.01 155.773 1023.01 147.56V145.6C1023.01 137.2 1021.23 129.92 1017.69 123.76C1014.33 117.413 1009.75 112.56 1003.97 109.2C998.365 105.653 992.112 103.88 985.205 103.88C972.699 103.88 963.272 107.893 956.925 115.92C950.765 123.947 947.685 133.84 947.685 145.6C947.685 157.547 950.765 167.533 956.925 175.56C963.272 183.587 972.699 187.6 985.205 187.6ZM1077.55 210V4.2H1107.51V210H1077.55ZM1132.17 210V81.48H1163.53V210H1132.17ZM1147.85 57.4C1142.07 57.4 1137.21 55.44 1133.29 51.52C1129.56 47.6 1127.69 42.7467 1127.69 36.96C1127.69 31.7333 1129.56 27.2533 1133.29 23.52C1137.21 19.7867 1142.07 17.92 1147.85 17.92C1153.64 17.92 1158.4 19.7867 1162.13 23.52C1166.05 27.2533 1168.01 31.7333 1168.01 36.96C1168.01 42.7467 1166.05 47.6 1162.13 51.52C1158.4 55.44 1153.64 57.4 1147.85 57.4ZM1199.05 210V106.12H1176.37V81.48H1199.05V29.12L1229.57 22.4V81.48H1259.25V106.12H1229.57V210H1199.05ZM1280.98 280.56L1308.7 213.92L1255.5 81.48H1289.66L1317.1 163.24L1323.26 183.12L1329.42 163.24L1358.26 81.48H1391.3L1312.34 280.56H1280.98Z" fill="white"/>
</svg>
