<svg width="367" height="504" viewBox="0 0 367 504" fill="none" xmlns="http://www.w3.org/2000/svg">
<path d="M29.6971 259.684C29.6971 259.684 11.7274 263.507 6.37197 274.595C1.02153 285.682 30.0792 374.386 30.0792 374.386L108.842 373.241C108.842 373.241 107.253 320.288 100.813 297.533C90.1692 259.92 60.0512 240.262 60.0512 240.262L29.6971 259.684Z" fill="white"/>
<path d="M30.079 375.619C30.0852 375.619 30.0911 375.619 30.0973 375.619L108.86 374.473C109.19 374.469 109.504 374.331 109.733 374.093C109.961 373.855 110.084 373.534 110.074 373.204C110.009 371.036 108.407 319.839 101.999 297.197C96.4349 277.534 85.522 262.83 77.3472 253.958C68.4847 244.339 61.0375 239.434 60.7248 239.23C60.3189 238.965 59.7951 238.963 59.387 239.224L29.2174 258.528C26.9991 259.033 10.5502 263.11 5.26223 274.059C4.39534 275.855 3.59255 279.991 6.61026 295.106C8.36074 303.874 11.1943 315.271 15.0325 328.981C21.5602 352.299 28.8356 374.548 28.9083 374.77C29.0741 375.277 29.5475 375.619 30.079 375.619ZM107.567 372.027L30.9704 373.141C29.5716 368.826 23.1922 348.988 17.4039 328.309C6.03758 287.703 6.30858 277.562 7.48176 275.131C12.5083 264.723 29.7801 260.927 29.954 260.89C30.0988 260.859 30.2371 260.802 30.3615 260.722L60.0268 241.741C62.0288 243.15 68.3999 247.874 75.5878 255.686C83.5608 264.352 94.2039 278.704 99.6274 297.868C105.405 318.284 107.275 363.889 107.567 372.027Z" fill="#283034"/>
<path d="M34.3768 246.696C39.4952 246.696 44.7949 244.658 48.9412 240.627C56.8787 232.906 57.6194 220.746 50.5918 213.521C43.5669 206.299 31.3906 206.707 23.45 214.43C15.5125 222.152 14.7722 234.312 21.7995 241.536C25.1563 244.988 29.6906 246.696 34.3768 246.696ZM38.0129 210.82C42.055 210.82 45.9477 212.281 48.8249 215.239C54.9046 221.49 54.1859 232.086 47.2226 238.86C40.255 245.634 29.6423 246.064 23.566 239.818C17.4864 233.568 18.2051 222.971 25.1686 216.197C28.837 212.629 33.5176 210.82 38.0129 210.82Z" fill="#283034"/>
<path d="M17.0312 237.613C15.282 235.774 15.3151 232.838 17.0968 231.055C18.8789 229.268 21.7403 229.316 23.4892 231.154C25.2335 232.993 25.2048 235.93 23.4234 237.712C21.6367 239.494 18.7755 239.452 17.0312 237.613Z" fill="white"/>
<path d="M20.2812 240.253C21.7913 240.253 23.2135 239.662 24.2942 238.584C26.5425 236.336 26.5824 232.623 24.3839 230.307C23.3008 229.168 21.8513 228.531 20.3025 228.513C18.7714 228.504 17.3183 229.089 16.2246 230.186C13.976 232.434 13.9367 236.147 16.1377 238.462C17.2134 239.596 18.6567 240.232 20.2017 240.253C20.228 240.253 20.2546 240.253 20.2812 240.253ZM20.2348 230.977C20.2478 230.977 20.2605 230.977 20.2732 230.977C21.1515 230.988 21.9769 231.352 22.5969 232.004C23.8824 233.359 23.8632 235.529 22.552 236.84C21.9274 237.463 21.0942 237.797 20.2351 237.788C19.3602 237.776 18.54 237.412 17.9256 236.764C17.925 236.764 17.9246 236.763 17.924 236.763C16.6361 235.409 16.6559 233.24 17.9686 231.927C18.5805 231.313 19.3837 230.977 20.2348 230.977Z" fill="#283034"/>
<path d="M38.0139 244.881C41.0211 243.981 46.1172 242.058 46.1172 242.058C46.8198 242.93 52.316 253.725 52.316 253.725C52.316 253.725 53.1083 260.198 43.9252 262.55C34.7468 264.902 30.9896 259.806 30.9896 259.806L26.8412 244.994C26.8412 244.994 35.0061 245.782 38.0139 244.881Z" fill="white"/>
<path d="M39.2966 264.408C40.7519 264.408 42.3922 264.215 44.2309 263.744C54.3452 261.153 53.5479 253.651 53.5386 253.576C53.521 253.433 53.4789 253.295 53.4136 253.166C52.1105 250.607 47.8027 242.187 47.0766 241.285C46.7425 240.87 46.18 240.716 45.6813 240.905C45.6308 240.924 40.591 242.824 37.6602 243.7H37.6596C35.3848 244.382 29.164 243.98 26.9591 243.768C26.5535 243.728 26.1562 243.892 25.8954 244.203C25.6343 244.515 25.544 244.935 25.6538 245.327L29.8023 260.139C29.8425 260.282 29.9087 260.417 29.9972 260.538C30.1385 260.73 32.9403 264.408 39.2966 264.408ZM51.1026 254.06C51.1251 255.037 50.8238 259.511 43.6192 261.356C36.2232 263.252 32.7782 259.974 32.1057 259.223L28.505 246.368C31.1728 246.554 36.0183 246.766 38.3665 246.062C40.6235 245.387 43.9726 244.169 45.6008 243.566C46.6138 245.356 48.9808 249.896 51.1026 254.06Z" fill="#283034"/>
<path d="M24.9926 232.493C23.6728 234.379 25.9496 230.527 26.7936 229.641C29.6123 226.667 32.837 223.621 35.9153 220.861C43.1846 214.342 59.3723 195.095 40.7989 188.977C30.7675 185.671 33.5584 197.516 27.463 199.869C23.4748 201.409 19.2227 197.944 15.7344 199.457C6.00464 203.678 11.1806 211.453 6.73973 218.33C4.54807 221.727 -0.96756 223.349 1.27638 228.524C3.5392 233.733 16.2718 243.317 21.8391 242.926C24.8277 242.714 15.5082 236.698 16.3142 233.573C17.7843 227.845 25.6996 231.485 24.9926 232.493Z" fill="#283034"/>
<path d="M28.1421 227.002C28.3067 226.917 28.7404 231.022 29.3109 231.965C31.2248 235.162 33.2045 236.241 36.6698 237.109C40.3747 238.032 48.7326 229.449 53.145 228.345C56.4263 227.525 67.608 238.556 65.7601 242.247C57.2274 259.316 23.2343 260.255 18.2094 240.144C17.7475 238.306 23.9979 239.895 24.7522 236.873C26.3928 230.316 20.9858 230.665 28.1421 227.002Z" fill="#283034"/>
<path d="M126.633 289.722L105.071 277.357C105.071 277.357 79.3885 316.041 65.1239 314.136C49.0676 311.996 44.8674 251.406 13.4439 264.361C-22.7037 279.262 29.6127 364.865 65.1239 364.232C100.635 363.596 126.633 289.722 126.633 289.722Z" fill="#283034"/>
<path d="M80.6557 258.652L100.314 178.12L104.754 83.6375L81.6083 81.1006L67.6592 160.682L50.538 215.532C54.2054 225.21 53.9038 229.604 53.9038 229.604L56.0252 237.938L80.6557 258.652Z" fill="#283034"/>
<path d="M85.125 82.8257C85.125 82.8257 77.8888 61.9613 78.0914 57.4047C78.2898 52.8485 86.2845 67.4123 86.2845 67.4123C86.2845 67.4123 83.3571 41.1161 86.0868 40.6177C88.8115 40.1177 91.0084 60.3206 91.0084 60.3206C91.0084 60.3206 92.0687 36.2257 95.1993 37.2596C98.3294 38.2939 96.3165 60.2829 96.3165 60.2829C96.3165 60.2829 100.701 40.6743 103.34 41.3379C105.98 42.0006 100.955 61.8818 100.955 61.8818C100.955 61.8818 106.348 48.5493 108.691 49.4753C111.034 50.4012 105.268 68.4373 105.268 68.4373L102.554 83.3058L85.125 82.8257Z" fill="white"/>
<path d="M102.554 84.5378C103.147 84.5378 103.659 84.1137 103.766 83.5265L106.467 68.7349C106.663 68.1162 107.991 63.882 109.055 59.5998C111.193 50.9885 110.707 48.9459 109.144 48.3284C107.72 47.7663 106.267 48.8485 104.363 52.0085C105.811 44.093 105.367 41.9836 104.805 41.0431C104.451 40.4513 103.977 40.2267 103.64 40.1422C103.298 40.0565 102.766 40.0308 102.172 40.3965C101.32 40.9215 100.114 42.3589 98.1757 48.51C98.3202 38.4128 97.0195 36.5629 95.5861 36.0893C95.0209 35.903 94.431 35.9928 93.9239 36.3424C92.872 37.0682 91.6577 39.1608 90.6116 49.1291C89.2853 42.0557 88.1743 40.3996 87.3381 39.7762C86.7679 39.3511 86.2224 39.34 85.8645 39.4055C84.2839 39.6942 83.8699 41.8354 83.735 44.9617C83.6363 47.2465 83.7025 50.3796 83.9318 54.2744C84.0905 56.9738 84.3071 59.6772 84.5081 61.9332C84.3516 61.6801 84.1926 61.4252 84.0323 61.1712C80.6984 55.8944 79.4083 55.0482 78.1961 55.3313C77.7252 55.4411 76.9258 55.8498 76.8602 57.3512C76.6533 62.008 83.2121 81.0715 83.9605 83.2298C84.1285 83.7139 84.5787 84.0437 85.091 84.058L102.519 84.5375C102.531 84.5378 102.543 84.5378 102.554 84.5378ZM108.046 51.0432C108.149 53.6244 106.213 61.4351 104.095 68.0614C104.079 68.1118 104.066 68.1632 104.056 68.2155L101.531 82.0442L86.0127 81.6173C84.0821 75.9816 80.1066 63.731 79.4213 58.8295C80.9113 60.7052 83.3053 64.5462 85.2046 68.0057C85.488 68.5218 86.0962 68.7656 86.6568 68.5877C87.2177 68.4101 87.575 67.8609 87.51 67.2762C86.4219 57.5013 85.7828 46.2862 86.3898 42.6534C86.87 43.7669 87.6348 46.2092 88.5329 51.5116C89.3017 56.0518 89.7791 60.4104 89.7837 60.454C89.8536 61.0947 90.4086 61.5721 91.0484 61.5526C91.6926 61.5319 92.2117 61.0186 92.2402 60.3751C92.2424 60.3238 92.4719 55.197 93.0146 49.862C93.7422 42.7085 94.542 39.9742 94.9915 38.948C95.348 39.9677 95.863 42.6853 95.6855 49.7714C95.553 55.0606 95.0939 60.1202 95.0893 60.1706C95.0302 60.8179 95.4835 61.3998 96.1257 61.5007C96.7683 61.6015 97.3775 61.1863 97.5195 60.5521C97.5291 60.5097 98.4838 56.2548 99.7467 51.852C101.236 46.6599 102.268 44.3343 102.863 43.3004C102.928 44.5116 102.795 47.116 101.746 52.597C100.862 57.2083 99.7715 61.5369 99.7607 61.5799C99.602 62.2079 99.9568 62.8517 100.573 63.0531C101.189 63.2542 101.855 62.9445 102.098 62.344C104.186 57.1842 106.701 52.4525 108.046 51.0432Z" fill="#283034"/>
<path d="M181.532 247.018L173.9 246.315C173.9 246.315 159.984 272.803 135.179 270.097C111.142 267.476 105.33 241.314 105.33 241.314L97.4807 240.639C97.4807 240.639 106.173 275.565 133.604 277.611C167.249 280.119 181.532 247.018 181.532 247.018Z" fill="white"/>
<path d="M137.167 278.977C153.074 278.977 164.296 271.049 171.067 264.116C178.912 256.083 182.514 247.852 182.664 247.506C182.82 247.144 182.794 246.728 182.592 246.388C182.391 246.049 182.038 245.827 181.645 245.79L174.014 245.088C173.516 245.043 173.042 245.301 172.81 245.742C172.776 245.806 169.315 252.307 162.939 258.379C154.496 266.42 145.201 269.949 135.313 268.872C125.756 267.83 118.019 262.866 112.318 254.118C108.012 247.51 106.547 241.109 106.533 241.045C106.416 240.521 105.972 240.131 105.436 240.085L97.5868 239.411C97.1914 239.377 96.8016 239.536 96.5436 239.839C96.2856 240.142 96.189 240.55 96.2852 240.936C96.3758 241.301 98.5703 249.961 104.21 259.01C111.756 271.116 121.889 277.973 133.513 278.84C134.756 278.933 135.976 278.977 137.167 278.977ZM179.646 248.082C178.236 250.819 174.829 256.753 169.245 262.453C159.202 272.706 147.243 277.391 133.696 276.382C122.752 275.566 113.547 269.301 106.336 257.761C102.318 251.329 100.072 244.958 99.1618 242.021L104.351 242.467C104.913 244.52 106.593 249.826 110.207 255.394C116.247 264.702 124.837 270.21 135.045 271.323C145.562 272.468 155.813 268.593 164.693 260.112C170.144 254.907 173.481 249.536 174.587 247.616L179.646 248.082Z" fill="#283034"/>
<path d="M125.553 290.25C125.553 290.25 142.867 276.579 141.84 270.461C140.817 264.342 123.384 251.934 117.798 253.367C112.212 254.805 112.004 261.452 112.004 261.452L103.91 253.259C103.166 253.173 101.756 259.703 101.756 264.766C101.756 271.215 104.735 278.404 104.735 278.404L125.553 290.25Z" fill="white"/>
<path d="M125.552 291.482C125.824 291.482 126.094 291.393 126.316 291.218C126.495 291.076 130.749 287.708 134.951 283.523C140.907 277.592 143.558 273.252 143.055 270.257C142.382 266.227 136.189 260.589 130.351 256.788C127.729 255.082 121.225 251.215 117.492 252.173C113.733 253.141 111.918 256.247 111.186 258.869L104.787 252.392C104.59 252.192 104.33 252.066 104.051 252.034C103.651 251.988 103.256 252.119 102.939 252.402C101.561 253.631 100.524 260.749 100.524 264.765C100.524 271.384 103.471 278.572 103.597 278.875C103.702 279.128 103.888 279.339 104.126 279.475L124.943 291.321C125.133 291.429 125.343 291.482 125.552 291.482ZM118.833 254.479C120.956 254.479 124.798 256.115 129.006 258.854C135.175 262.87 140.17 267.947 140.624 270.664C141.263 274.467 131.907 283.549 125.436 288.766L105.723 277.548C105.128 275.999 102.989 270.061 102.989 264.766C102.989 261.153 103.678 257.276 104.225 255.331L111.128 262.318C111.475 262.668 111.996 262.779 112.456 262.599C112.914 262.419 113.222 261.983 113.237 261.49C113.245 261.259 113.501 255.746 118.106 254.561C118.318 254.506 118.562 254.479 118.833 254.479Z" fill="#283034"/>
<path d="M107.649 374.066C107.649 374.066 121.994 466.027 124.101 489.65C126.213 513.277 123.894 599.558 123.894 599.558L78.8787 600.058L72.1426 493.19L54.7429 599.44L4.30266 599.134L28.3444 374.91L107.649 374.066Z" fill="#283034"/>
<path d="M73.1766 496.015C73.8009 496.015 74.3362 495.543 74.4011 494.908L80.3227 437.21L89.5976 421.591C89.9454 421.005 89.7523 420.249 89.1673 419.902C88.5816 419.554 87.8258 419.747 87.4784 420.332L78.0648 436.185C77.9736 436.339 77.9166 436.511 77.8984 436.689L71.949 494.657C71.8794 495.334 72.3722 495.939 73.0491 496.009C73.0921 496.013 73.1348 496.015 73.1766 496.015Z" fill="white"/>
<path d="M194.755 44.8333L281.513 253.132L97.7968 240.889L79.0257 192.304L194.755 44.8333Z" fill="white"/>
<path d="M281.513 254.364C281.909 254.364 282.283 254.174 282.515 253.849C282.763 253.502 282.814 253.051 282.65 252.658L195.893 44.3591C195.725 43.9554 195.355 43.6707 194.922 43.6116C194.488 43.5535 194.056 43.7276 193.786 44.072L78.0561 191.543C77.7879 191.885 77.7195 192.343 77.8761 192.748L96.6472 241.333C96.8201 241.781 97.2365 242.087 97.7149 242.119L281.431 254.361C281.458 254.363 281.486 254.364 281.513 254.364ZM194.426 47.2487L279.61 251.77L98.6628 239.712L80.4276 192.514L194.426 47.2487Z" fill="#283034"/>
<path d="M79.1097 194.092L61.4883 203.706L77.7469 245.423L97.4941 241.879L79.1097 194.092Z" fill="white"/>
<path d="M77.7471 246.656C77.8192 246.656 77.8922 246.65 77.9656 246.637L97.7127 243.092C98.0744 243.027 98.3884 242.804 98.5688 242.484C98.7492 242.164 98.7773 241.78 98.6455 241.437L80.2608 193.65C80.1334 193.318 79.8689 193.058 79.5356 192.936C79.2021 192.813 78.8327 192.84 78.5203 193.011L60.8988 202.625C60.3546 202.922 60.1158 203.577 60.3407 204.155L76.5996 245.872C76.7862 246.351 77.2468 246.656 77.7471 246.656ZM95.8091 240.93L78.528 244.032L63.0311 204.27L78.4655 195.848L95.8091 240.93Z" fill="#283034"/>
<path d="M219.447 72.695C219.779 72.695 220.11 72.562 220.353 72.299L285.27 2.0691C285.732 1.56914 285.702 0.78949 285.202 0.327583C284.702 -0.134633 283.922 -0.104002 283.46 0.395959L218.543 70.6259C218.08 71.1259 218.111 71.9055 218.611 72.3674C218.848 72.5867 219.148 72.695 219.447 72.695Z" fill="#283034"/>
<path d="M248.746 112.107C248.982 112.107 249.219 112.04 249.43 111.9L321.72 63.5937C322.286 63.2156 322.438 62.4502 322.06 61.8843C321.682 61.3185 320.917 61.166 320.351 61.5443L248.061 109.85C247.495 110.228 247.342 110.994 247.721 111.56C247.958 111.915 248.348 112.107 248.746 112.107Z" fill="#283034"/>
<path d="M269.578 155.484C269.742 155.484 269.908 155.452 270.068 155.382L345.092 122.82C345.717 122.549 346.003 121.823 345.732 121.199C345.461 120.574 344.735 120.288 344.111 120.559L269.087 153.121C268.462 153.392 268.176 154.118 268.447 154.742C268.648 155.207 269.102 155.484 269.578 155.484Z" fill="#283034"/>
<path d="M288.964 214.497C289.053 214.497 289.144 214.488 289.235 214.467L365.532 197.403C366.196 197.255 366.614 196.596 366.465 195.932C366.317 195.268 365.658 194.849 364.994 194.998L288.697 212.062C288.032 212.21 287.614 212.869 287.763 213.534C287.891 214.107 288.4 214.497 288.964 214.497Z" fill="#283034"/>
<path d="M263.025 247.963C263.183 247.963 263.343 247.932 263.498 247.868C264.127 247.606 264.424 246.884 264.162 246.256L187.398 61.9284C187.136 61.2997 186.414 61.0024 185.786 61.2644C185.158 61.5262 184.861 62.2476 185.123 62.876L261.886 247.204C262.084 247.677 262.542 247.963 263.025 247.963Z" fill="#283034"/>
<path d="M166.338 100.868C166.706 100.868 167.071 100.703 167.314 100.389L177.911 86.6744C178.327 86.1357 178.228 85.3616 177.689 84.9455C177.15 84.5294 176.377 84.6284 175.96 85.1673L165.363 98.8819C164.947 99.4206 165.046 100.195 165.585 100.611C165.809 100.784 166.075 100.868 166.338 100.868Z" fill="#283034"/>
<path d="M99.0121 182.656C99.3735 182.656 99.7314 182.498 99.9749 182.193L156.86 111.161C157.285 110.63 157.199 109.854 156.668 109.428C156.137 109.003 155.361 109.088 154.936 109.62L98.0508 180.652C97.6254 181.184 97.7112 181.96 98.2424 182.385C98.4698 182.567 98.7417 182.656 99.0121 182.656Z" fill="#283034"/>
</svg>
